<svg height="84" viewBox="0 0 126 84" width="126" xmlns="http://www.w3.org/2000/svg"><path d="m126 83v1h-126v-2h40v-40h-40v-2h40v-40h2v40h40v-40h2v40h40v-40h2zm-2-1v-40h-40v40zm-42-40h-40v40h40zm-50-6a4 4 0 1 1 0-8 4 4 0 0 1 0 8zm-24-24a4 4 0 1 1 0-8 4 4 0 0 1 0 8zm96 12a4 4 0 1 1 0-8 4 4 0 0 1 0 8zm-42 0a4 4 0 1 1 0-8 4 4 0 0 1 0 8zm30-12a4 4 0 1 1 0-8 4 4 0 0 1 0 8zm-72 42a4 4 0 1 1 0-8 4 4 0 0 1 0 8zm12 24a4 4 0 1 1 0-8 4 4 0 0 1 0 8zm-24-24a4 4 0 1 1 0-8 4 4 0 0 1 0 8zm24 0a4 4 0 1 1 0-8 4 4 0 0 1 0 8zm-24 24a4 4 0 1 1 0-8 4 4 0 0 1 0 8zm12 0a4 4 0 1 1 0-8 4 4 0 0 1 0 8zm54 0a4 4 0 1 1 0-8 4 4 0 0 1 0 8zm-24-24a4 4 0 1 1 0-8 4 4 0 0 1 0 8zm24 0a4 4 0 1 1 0-8 4 4 0 0 1 0 8zm-24 24a4 4 0 1 1 0-8 4 4 0 0 1 0 8zm54-12a4 4 0 1 1 0-8 4 4 0 0 1 0 8zm12 12a4 4 0 1 1 0-8 4 4 0 0 1 0 8zm-24-24a4 4 0 1 1 0-8 4 4 0 0 1 0 8zm24 0a4 4 0 1 1 0-8 4 4 0 0 1 0 8zm-24 24a4 4 0 1 1 0-8 4 4 0 0 1 0 8zm24-42a4 4 0 1 1 0-8 4 4 0 0 1 0 8z" fill-rule="evenodd"/></svg>