<svg height="100" viewBox="0 0 100 100" width="100" xmlns="http://www.w3.org/2000/svg"><path d="m11 18c3.8659932 0 7-3.1340068 7-7 0-3.86599325-3.1340068-7-7-7-3.86599325 0-7 3.13400675-7 7 0 3.8659932 3.13400675 7 7 7zm48 25c3.8659932 0 7-3.1340068 7-7s-3.1340068-7-7-7-7 3.1340068-7 7 3.1340068 7 7 7zm-43-7c1.6568542 0 3-1.3431458 3-3s-1.3431458-3-3-3-3 1.3431458-3 3 1.3431458 3 3 3zm63 31c1.6568542 0 3-1.3431458 3-3s-1.3431458-3-3-3-3 1.3431458-3 3 1.3431458 3 3 3zm-45 23c1.6568542 0 3-1.3431458 3-3s-1.3431458-3-3-3-3 1.3431458-3 3 1.3431458 3 3 3zm56-76c1.6568542 0 3-1.3431458 3-3 0-1.65685425-1.3431458-3-3-3s-3 1.34314575-3 3c0 1.6568542 1.3431458 3 3 3zm-78 72c2.209139 0 4-1.790861 4-4s-1.790861-4-4-4-4 1.790861-4 4 1.790861 4 4 4zm28-65c2.209139 0 4-1.790861 4-4s-1.790861-4-4-4-4 1.790861-4 4 1.790861 4 4 4zm23-11c2.7614237 0 5-2.23857625 5-5s-2.2385763-5-5-5-5 2.23857625-5 5 2.2385763 5 5 5zm-6 60c2.209139 0 4-1.790861 4-4s-1.790861-4-4-4-4 1.790861-4 4 1.790861 4 4 4zm29 22c2.7614237 0 5-2.2385763 5-5s-2.2385763-5-5-5-5 2.2385763-5 5 2.2385763 5 5 5zm-54-29c2.7614237 0 5-2.2385763 5-5s-2.2385763-5-5-5-5 2.2385763-5 5 2.2385763 5 5 5zm57-13c2.7614237 0 5-2.2385763 5-5s-2.2385763-5-5-5-5 2.2385763-5 5 2.2385763 5 5 5zm-9-21c1.1045695 0 2-.8954305 2-2s-.8954305-2-2-2-2 .8954305-2 2 .8954305 2 2 2zm-20 62c1.1045695 0 2-.8954305 2-2s-.8954305-2-2-2-2 .8954305-2 2 .8954305 2 2 2zm-25-50c1.1045695 0 2-.8954305 2-2s-.8954305-2-2-2-2 .8954305-2 2 .8954305 2 2 2zm-23 19c1.1045695 0 2-.8954305 2-2s-.8954305-2-2-2-2 .8954305-2 2 .8954305 2 2 2z" fill-rule="evenodd"/></svg>