<svg height="40" viewBox="0 0 40 40" width="40" xmlns="http://www.w3.org/2000/svg"><path d="m0 0h20v20h-20zm10 17c3.8659932 0 7-3.1340068 7-7 0-3.86599325-3.1340068-7-7-7-3.86599325 0-7 3.13400675-7 7 0 3.8659932 3.13400675 7 7 7zm20 0c3.8659932 0 7-3.1340068 7-7 0-3.86599325-3.1340068-7-7-7s-7 3.13400675-7 7c0 3.8659932 3.1340068 7 7 7zm-20 20c3.8659932 0 7-3.1340068 7-7s-3.1340068-7-7-7c-3.86599325 0-7 3.1340068-7 7s3.13400675 7 7 7zm10-17h20v20h-20zm10 17c3.8659932 0 7-3.1340068 7-7s-3.1340068-7-7-7-7 3.1340068-7 7 3.1340068 7 7 7z" fill-rule="evenodd"/></svg>