<svg viewBox="0 0 80 80" xmlns="http://www.w3.org/2000/svg"><path d="m11 0 5 20h-10zm42 31a3 3 0 1 0 0-6 3 3 0 0 0 0 6zm-53 41h40v4h-40zm0-8h31v4h-31zm20-16h20v4h-20zm-20 8h40v4h-40zm63-25a3 3 0 1 0 0-6 3 3 0 0 0 0 6zm10 0a3 3 0 1 0 0-6 3 3 0 0 0 0 6zm-20 10a3 3 0 1 0 0-6 3 3 0 0 0 0 6zm10 0a3 3 0 1 0 0-6 3 3 0 0 0 0 6zm10 0a3 3 0 1 0 0-6 3 3 0 0 0 0 6zm-30 0a3 3 0 1 0 0-6 3 3 0 0 0 0 6zm-28-8a5 5 0 0 0 -10 0zm10 0a5 5 0 0 1 -10 0zm31-28a5 5 0 0 0 -10 0zm10 0a5 5 0 0 1 -10 0zm-3 46a3 3 0 1 0 0-6 3 3 0 0 0 0 6zm10 0a3 3 0 1 0 0-6 3 3 0 0 0 0 6zm-52-51 5 20h-10zm43 64v-4h-4v4h-4v4h4v4h4v-4h4v-4zm-28-51h4v4h-4zm4 4h4v4h-4zm-4 4h4v4h-4zm8-8h4v4h-4z" fill-rule="evenodd"/></svg>