<svg xmlns="http://www.w3.org/2000/svg" stroke-width="1.5" viewBox="0 0 26 27"><path fill="#000" fill-rule="nonzero" d="M4.282 10.734L1.94 6.701a.674.674 0 0 1-.007-.013c-.495-.898.092-1.812 1.08-1.812h3.754c.682 0 1.237.377 1.622 1.04l2.578 4.47c.117.203.12.453.008.659-.07.128-3.634 6.402-4.048 7.132l-.006.01c-.394.668-.937 1.052-1.601 1.052H1.566c-.954 0-1.528-.973-1.088-1.816A.674.674 0 0 1 .49 17.4l3.792-6.667zm2.94-4.142c-.16-.275-.297-.368-.455-.368H3.222l2.396 4.126a.651.651 0 0 1 .12.385.674.674 0 0 1-.139.41l-3.837 6.746H5.32c.129 0 .267-.097.437-.385l3.85-6.78-2.385-4.134zm-2.245-.556l-.006.004v.028l.018-.01a.498.498 0 0 1-.004-.008l-.008-.014zm5.711 10.166a.674.674 0 0 1 .005-.658 411.31 411.31 0 0 0 2.237-3.674 504.58 504.58 0 0 0 6.113-10.506c.378-.665.92-1.045 1.595-1.045h3.789c.97 0 1.538.923 1.09 1.795a.674.674 0 0 1-.02.035l-8.113 13.732 5.102 9.279c.475.864-.073 1.812-1.08 1.812h-3.76c-.704 0-1.267-.38-1.63-1.056l-5.328-9.714zM24.346 1.504a.283.283 0 0 1-.01.02l.012.006a.24.24 0 0 1 .001-.031l-.003.005zm-.13.163h-3.578c-.14 0-.267.089-.423.362a505.904 505.904 0 0 1-6.129 10.535 420.862 420.862 0 0 1-2.027 3.334l5.14 9.372.002.005c.142.263.268.349.445.349h3.557l-5.18-9.421a.674.674 0 0 1-.084-.325v-.018c0-.12.033-.239.094-.343l8.183-13.85z"/></svg>
